LandlineRing_SQ2:
	.db $e4
	note_type 2, 13
	rest
	note_type 2, 2
	note G_, 5
	note G_, 5
	note G_, 5
	note G_, 5
	note G_, 5
	note G_, 5
	note G_, 5
	note G_, 5
	note G_, 5
	note G_, 5
	note G_, 5
	note G_, 5
	note G_, 5
	note G_, 5
	note G_, 5
	.db $e0
	note_type 2, 12
	note G_, 5
	sound_ret

LandlineRing_SQ1:
	.db $e4
	note_type 2, 2
	note D#, 5
	note D#, 5
	note D#, 5
	note D#, 5
	note D#, 5
	note D#, 5
	note D#, 5
	note D#, 5
	note D#, 5
	note D#, 5
	note D#, 5
	note D#, 5
	note D#, 5
	note D#, 5
	note D#, 5
	.db $e0
	note_type 2, 12
	note D#, 5
	note_type 2, 13
	rest
