MusDSave1:
MusDSave1_SQ2:
	note_type 6, 4
	note F#, 3
	rest
	note_type 6, 5
	note F#, 3
	rest
	note_type 6, 4
	note D_, 3
	rest
	note_type 6, 0
	note F#, 3
	rest
	note_type 6, 8
	note G_, 3
	note_type 6, 4
	rest
	note G_, 3
	rest
	note G_, 3
	note_type 8, 4
	note D#, 5
	rest
	note_type 6, 4
	note F#, 3
	rest
	note_type 6, 8
	note F#, 3
	note_type 6, 4
	rest
	note D_, 3
	rest
	note D_, 3
	note D_, 3
	rest
	note_type 6, 5
	note C_, 3
	rest
	note_type 6, 9
	rest
	note_type 6, 4
	note D_, 3
	note_type 8, 4
	note D#, 5
	note_type 6, 5
	note B_, 3
	note_type 8, 0
	rest
	note D#, 5
	rest
	note_type 6, 4
	note G_, 3
	note_type 8, 4
	note D#, 5
	note_type 6, 0
	note G_, 3
	rest
	note_type 6, 4
	note G_, 3
	note_type 8, 4
	note D#, 5
	rest
	note_type 6, 4
	note G_, 3
	note_type 8, 4
	note D#, 5
	note_type 6, 4
	note B_, 3
	note_type 8, 4
	note D#, 5
	rest
	note_type 6, 4
	note G_, 3
	note_type 8, 4
	note D#, 5
	note_type 6, 5
	note G_, 3
	note_type 8, 0
	rest
	note D#, 5
	rest
	note_type 6, 4
	note E_, 3
	note_type 8, 4
	note D#, 5
	note_type 6, 0
	note E_, 3
	rest
	note_type 6, 4
	note E_, 3
	note_type 8, 4
	note D#, 5
	rest
	note_type 6, 4
	note E_, 3
	note_type 8, 4
	note D#, 5
	note_type 6, 4
	note E_, 3
	note_type 8, 4
	note D#, 5
	note_type 6, 0
	note G_, 3
	rest
	note_type 6, 4
	note G_, 3
	note_type 8, 4
	note D#, 5
	note_type 6, 5
	note G_, 3
	note_type 8, 0
	rest
	note D#, 5
	rest
	note_type 6, 4
	note G_, 3
	note_type 8, 4
	note D#, 5
	note_type 6, 0
	note G_, 3
	rest
	note_type 6, 4
	note G_, 3
	note_type 8, 4
	note D#, 5
	rest
	note_type 6, 4
	note E_, 3
	note_type 8, 4
	note D#, 5
	note_type 6, 4
	note G_, 3
	note_type 8, 4
	note D#, 5
	rest
	note_type 6, 4
	note B_, 2
	note_type 8, 4
	note D#, 5
	note_type 6, 4
	note G_, 3
	rest
	rest
	note D_, 3
	rest
	note_type 6, 0
	note D_, 3
	rest
	note_type 6, 4
	note A_, 2
	rest
	note_type 6, 11
	rest
	note_type 6, 4
	note D_, 3
	note_type 8, 4
	note D#, 5
	note_type 6, 5
	note B_, 3
	note_type 8, 0
	rest
	note D#, 5
	rest
	note_type 6, 4
	note G_, 3
	note_type 8, 4
	note D#, 5
	note_type 6, 0
	note G_, 3
	rest
	note_type 6, 4
	note G_, 3
	note_type 8, 4
	note D#, 5
	rest
	note_type 6, 4
	note G_, 3
	note_type 8, 4
	note D#, 5
	note_type 6, 4
	note B_, 3
	note_type 8, 4
	note D#, 5
	rest
	note_type 6, 4
	note G_, 3
	note_type 8, 4
	note D#, 5
	note_type 6, 5
	note G_, 3
	note_type 8, 0
	rest
	note D#, 5
	rest
	note_type 6, 4
	note E_, 3
	note_type 8, 4
	note D#, 5
	note_type 6, 0
	note E_, 3
	rest
	sound_ret

MusDSave1_SQ1:
	note_type 6, 4
	note B_, 3
	note_type 8, 4
	note D#, 5
	note_type 6, 5
	note B_, 3
	note_type 8, 0
	rest
	note D#, 5
	rest
	note_type 6, 4
	note G_, 3
	note_type 8, 4
	note D#, 5
	note_type 6, 0
	note B_, 3
	rest
	note_type 6, 8
	note C_, 4
	note_type 6, 4
	rest
	note D_, 4
	note_type 8, 4
	note D#, 5
	note_type 6, 5
	note C_, 4
	rest
	note_type 6, 4
	note B_, 3
	note_type 8, 4
	note D#, 5
	note_type 6, 8
	note B_, 3
	note_type 8, 4
	note D#, 5
	note_type 6, 4
	note A_, 3
	note_type 8, 4
	note D#, 5
	note_type 6, 4
	note G_, 3
	note F#, 3
	rest
	note_type 6, 5
	note F#, 3
	note_type 6, 0
	rest
	note_type 5, 4
	note A_, 3
	note D_, 4
	note F#, 4
	note_type 5, 9
	note G_, 4
	note_type 5, 8
	note B_, 4
	note A_, 4
	note_type 5, 4
	note G_, 4
	note_type 5, 9
	note F#, 4
	note_type 5, 8
	note G_, 4
	note_type 5, 4
	note F#, 4
	note_type 5, 8
	note E_, 4
	note D_, 4
	note_type 5, 10
	note C_, 4
	note_type 6, 5
	note G_, 3
	note_type 6, 0
	rest
	note G_, 3
	rest
	note_type 6, 8
	note G_, 3
	note_type 6, 4
	rest
	note G_, 3
	note_type 5, 4
	note D_, 4
	note E_, 4
	note D_, 4
	note_type 5, 9
	note C_, 4
	note_type 5, 8
	note B_, 3
	note A_, 3
	note C_, 4
	note E_, 4
	note G_, 4
	note F#, 4
	note_type 5, 4
	note E_, 4
	note_type 5, 10
	note D_, 4
	note_type 8, 4
	rest
	note D#, 5
	note_type 6, 4
	note G_, 3
	note_type 8, 4
	note D#, 5
	note_type 6, 0
	note G_, 3
	rest
	note_type 6, 4
	note F#, 3
	note_type 6, 9
	rest
	note_type 5, 4
	note A_, 3
	note D_, 4
	note F#, 4
	note_type 5, 9
	note G_, 4
	note_type 5, 8
	note B_, 4
	note A_, 4
	note_type 5, 4
	note G_, 4
	note_type 5, 9
	note F#, 4
	note_type 5, 8
	note G_, 4
	note_type 5, 4
	note F#, 4
	note_type 5, 8
	note E_, 4
	note D_, 4
	note_type 5, 10
	note C_, 4
	note_type 6, 5
	note G_, 3
	note_type 6, 0
	rest
	note G_, 3
	rest

MusDSave1_Hill:
	note_type 1, 4
	note D_, 4
	rest
	note_type 1, 5
	note D_, 4
	rest
	note_type 1, 4
	note B_, 3
	rest
	note_type 1, 0
	note D_, 4
	rest
	note_type 1, 8
	note E_, 4
	note_type 1, 4
	rest
	note F#, 4
	rest
	note_type 1, 5
	note E_, 4
	rest
	note_type 1, 4
	note D_, 4
	rest
	note_type 1, 8
	note D_, 4
	note_type 1, 4
	rest
	note C_, 4
	rest
	note B_, 3
	note A_, 3
	rest
	note_type 1, 5
	note A_, 3
	note_type 1, 0
	rest
	note_type 1, 4
	note D_, 4
	note F#, 4
	note A_, 4
	note_type 8, 4
	note B_, 4
	note_type 1, 8
	note B_, 4
	note D_, 5
	note_type 1, 4
	note C_, 5
	note D_, 4
	note B_, 4
	note A_, 4
	note_type 1, 8
	note D_, 4
	note_type 1, 4
	note B_, 4
	note D_, 4
	note A_, 4
	note_type 1, 8
	note G_, 4
	note_type 1, 4
	note F#, 4
	note D_, 4
	note E_, 4
	note_type 1, 5
	note D_, 4
	rest
	note D_, 4
	note_type 1, 0
	rest
	note D_, 4
	rest
	note_type 1, 8
	note D_, 4
	note_type 1, 4
	rest
	note D_, 4
	note F#, 4
	note G_, 4
	note F#, 4
	note_type 8, 4
	note E_, 4
	note_type 1, 8
	note E_, 4
	note D_, 4
	note C_, 4
	note E_, 4
	note G_, 4
	note B_, 4
	note A_, 4
	note_type 1, 4
	note G_, 4
	note_type 8, 4
	note G_, 4
	note_type 1, 8
	note G_, 4
	note_type 1, 4
	note B_, 3
	rest
	rest
	note B_, 3
	rest
	note_type 1, 0
	note B_, 3
	rest
	note_type 1, 4
	note D_, 3
	rest
	rest
	rest
	note_type 1, 4
	note D_, 4
	note F#, 4
	note A_, 4
	note_type 8, 4
	note B_, 4
	note_type 1, 8
	note B_, 4
	note D_, 5
	note_type 1, 4
	note C_, 5
	note D_, 4
	note B_, 4
	note A_, 4
	note_type 1, 8
	note D_, 4
	note_type 1, 4
	note B_, 4
	note D_, 4
	note A_, 4
	note_type 1, 8
	note G_, 4
	note_type 1, 4
	note F#, 4
	note D_, 4
	note E_, 4
	note_type 1, 5
	note D_, 4
	rest
	note D_, 4
	note_type 1, 0
	rest
	note D_, 4
	rest

MusDSave1_Noise:
	note_type 1, 4
	drum_note P_Kick
	drum_note P_Hat
	drum_note P_Hat
	drum_note P_Hat
	drum_note P_Kick
	drum_note P_Kick
	drum_note P_Hat
	drum_note P_Hat
	drum_note P_Kick
	drum_note P_Hat
	drum_note P_Hat
	drum_note P_Kick
	drum_note P_Kick
	drum_note P_Hat
	drum_note P_Hat
	drum_note P_Kick
	drum_note P_Kick
	drum_note P_Hat
	drum_note P_Hat
	drum_note P_Hat
	drum_note P_Kick
	drum_note P_Kick
	drum_note P_Hat
	drum_note P_Kick
	note_type 1, 8
	drum_note P_Kick
	drum_note P_OHat
	note_type 1, 4
	drum_rest
	drum_note P_Snare
	drum_note P_Kick
	drum_note P_Kick
	drum_note P_Kick
	drum_note P_Hat
	drum_note P_Snare
	drum_note P_Hat
	drum_note P_Kick
	drum_note P_Kick
	drum_note P_Snare
	drum_note P_Hat
	drum_note P_Kick
	drum_note P_Hat
	drum_note P_Snare
	drum_note P_Kick
	drum_note P_Kick
	drum_note P_Hat
	drum_note P_Hat
	drum_note P_Snare
	drum_note P_Kick
	drum_note P_Hat
	drum_note P_Snare
	drum_note P_Hat
	drum_note P_Kick
	drum_note P_Kick
	drum_note P_Snare
	drum_note P_Hat
	drum_note P_Kick
	drum_note P_Hat
	drum_note P_Snare
	drum_note P_Kick
	drum_note P_Kick
	drum_note P_Snare
	drum_note P_Snare
	drum_note P_Kick
	drum_note P_Kick
	drum_note P_Hat
	drum_note P_Snare
	drum_note P_Kick
	drum_note P_Kick
	drum_note P_Kick
	drum_note P_Snare
	drum_note P_Hat
	drum_note P_Kick
	drum_note P_Hat
	drum_note P_Snare
	drum_note P_Kick
	drum_note P_Kick
	drum_note P_Hat
	drum_note P_Snare
	drum_note P_Kick
	drum_note P_Kick
	drum_note P_Hat
	drum_note P_Snare
	drum_note P_Kick
	drum_note P_Kick
	drum_note P_Hat
	drum_note P_Snare
	drum_note P_Kick
	drum_note P_Snare
	drum_note P_Hat
	note_type 1, 9
	drum_note P_OHat
	note_type 1, 4
	drum_note P_Snare
	drum_note P_Kick
	drum_note P_Kick
	drum_note P_Kick
	drum_note P_Hat
	drum_note P_Snare
	drum_note P_Hat
	drum_note P_Kick
	drum_note P_Kick
	drum_note P_Snare
	drum_note P_Hat
	drum_note P_Kick
	drum_note P_Hat
	drum_note P_Snare
	drum_note P_Kick
	drum_note P_Kick
	drum_note P_Hat
	drum_note P_Hat
	drum_note P_Snare
	drum_note P_Kick
	drum_note P_Hat
	drum_note P_Snare
	drum_note P_Hat
	drum_note P_Kick
	drum_note P_Kick
	drum_note P_Snare
	drum_note P_Hat

MusDSave1_DPCM:
	note_type 1, 8
	smp_note EBH_G2
	note_type 1, 4
	smp_note Ens_SideStx
	note_type 1, 0
	smp_note EBH_G2
	rest
	note_type 1, 1
	smp_note EBH_As2
	note_type 1, 0
	smp_note EBH_B2
	note_type 1, 1
	rest
	note_type 1, 4
	smp_note EBH_D3
	smp_note Ens_SideStx
	smp_note EBH_B2
	smp_note EBH_C3
	smp_note S_Claves
	smp_note Ens_SideStx
	note_type 1, 0
	smp_note EBH_C3
	rest
	note_type 1, 8
	smp_note EBH_C3
	note_type 1, 4
	smp_note Ens_SideStx
	smp_note EBH_C3
	note_type 1, 8
	smp_note EBH_G3
	note_type 1, 4
	smp_note Ens_SideStx
	note_type 1, 0
	smp_note EBH_G3
	rest
	note_type 1, 4
	smp_note EBH_G3
	smp_note Ens_SideStx
	smp_note EBH_Fs3
	smp_note EBH_E3
	smp_note EBH_D3
	smp_note S_Conga
	note_type 1, 8
	smp_note EBH_D3
	note_type 1, 4
	smp_note S_Click
	smp_note S_Click
	smp_note EBH_C3
	smp_note EBH_A2
	note_type 1, 8
	smp_note EBH_G2
	note_type 1, 4
	smp_note Maj_G2
	note_type 1, 0
	smp_note EBH_G2
	rest
	note_type 1, 8
	smp_note EBH_G2
	note_type 1, 4
	smp_note Maj_G2
	note_type 1, 0
	smp_note EBH_Fs2
	rest
	note_type 1, 8
	smp_note EBH_G2
	note_type 1, 4
	smp_note Maj_G2
	smp_note EBH_B2
	smp_note EBH_D3
	smp_note EBH_G3
	smp_note Maj_G2
	smp_note EBH_B2
	note_type 1, 8
	smp_note EBH_C3
	note_type 1, 4
	smp_note Maj_C3
	note_type 1, 0
	smp_note EBH_G2
	rest
	note_type 1, 8
	smp_note EBH_C3
	note_type 1, 4
	smp_note Maj_C3
	note_type 1, 0
	smp_note EBH_C3
	rest
	note_type 1, 1
	smp_note EBH_Fs3
	note_type 1, 5
	smp_note EBH_G3
	note_type 1, 1
	rest
	note_type 1, 4
	smp_note Maj_C3
	note_type 1, 0
	smp_note EBH_C3
	rest
	note_type 1, 4
	smp_note EBH_C3
	smp_note EBH_B2
	smp_note EBH_C3
	smp_note EBH_B2
	note_type 1, 8
	smp_note EBH_A2
	note_type 1, 4
	smp_note Maj_C3
	note_type 1, 0
	smp_note EBH_A2
	rest
	note_type 1, 4
	smp_note EBH_A2
	smp_note CrossStx
	smp_note Maj_C3
	note_type 1, 0
	smp_note EBH_A2
	rest
	note_type 1, 8
	smp_note EBH_C3
	note_type 1, 4
	smp_note Maj_C3
	note_type 1, 0
	smp_note EBH_C3
	rest
	note_type 1, 1
	smp_note EBH_Ds3
	note_type 1, 5
	smp_note EBH_E3
	note_type 1, 1
	rest
	note_type 1, 4
	smp_note Maj_C3
	smp_note EBH_A2
	note_type 1, 8
	smp_note EBH_D3
	note_type 1, 4
	smp_note Maj_G2
	note_type 1, 0
	smp_note EBH_D3
	rest
	note_type 1, 8
	smp_note EBH_D3
	note_type 1, 4
	smp_note Maj_G2
	note_type 1, 0
	smp_note EBH_D3
	rest
	note_type 1, 4
	smp_note Maj_D2
	smp_note BassDr
	note_type 1, 8
	smp_note Ens_Snare
	note_type 1, 4
	smp_note S_Click
	smp_note S_Click
	smp_note EBH_C3
	smp_note EBH_A2
	note_type 1, 8
	smp_note EBH_G2
	note_type 1, 4
	smp_note Maj_G2
	note_type 1, 0
	smp_note EBH_G2
	rest
	note_type 1, 8
	smp_note EBH_G2
	note_type 1, 4
	smp_note Maj_G2
	note_type 1, 0
	smp_note EBH_Fs2
	rest
	note_type 1, 8
	smp_note EBH_G2
	note_type 1, 4
	smp_note Maj_G2
	smp_note EBH_B2
	smp_note EBH_D3
	smp_note EBH_G3
	smp_note Maj_G2
	smp_note EBH_B2
	note_type 1, 8
	smp_note EBH_C3
	note_type 1, 4
	smp_note Maj_C3
	note_type 1, 0
	smp_note EBH_G2
	rest
	note_type 1, 8
	smp_note EBH_C3
	note_type 1, 4
	smp_note Maj_C3
	note_type 1, 0
	smp_note EBH_C3
	rest
