MusDTitle8:
MusDTitle8_SQ2:
	note_type 3, 12
	rest
	rest
	rest
	; ah
	note_type 3, 4
	note D#, 3
	note_type 3, 8
	note E_, 3
	; ah
	note_type 3, 9
	note D#, 3
	note_type 3, 8
	note D#, 3
	sound_ret

MusDTitle8_SQ1:
	note_type 2, 4
	rest
	; be-
	note_type 2, 0
	note B_, 2
	note_type 1, 1
	rest
	; -cause
	toggle_sweep
	note E_, 3
	toggle_sweep
	note_type 3, 8
	note E_, 3
	; when
	note_type 4, 8
	note G#, 3
	; he's
	note_type 2, 5
	note B_, 3
	toggle_sweep
	note_type 1, 1
	note C_, 6
	note C_, 6
	toggle_sweep
	; run-
	note_type 4, 1
	note A_, 3
	note_type 3, 4
	note A_, 3
	note_type 2, 1
	rest
	; -ning
	note_type 2, 5
	note G#, 3
	; out,
	note_type 3, 4
	note F#, 3
	note_type 6, 0
	note F#, 3
	note_type 1, 8
	rest
	note_type 1, 1
	rest
	; they'll
	toggle_sweep
	note C_, 6
	toggle_sweep
	note_type 4, 4
	note E_, 3
	; al-
	note_type 3, 0
	note F_, 3
	note_type 3, 5
	note F#, 3
	; -ways
	note_type 4, 0
	note G#, 3
	toggle_sweep
	note_type 1, 1
	note C_, 6
	note C_, 6
	toggle_sweep
	; know
	note_type 4, 8
	note A_, 3
	; his
	note_type 2, 5
	note G#, 3
	toggle_sweep
	note_type 1, 1
	note C_, 6
	toggle_sweep
	; name.
	note_type 2, 1
	note A_, 3
	note_type 4, 4
	note A_, 3
	note_type 4, 9
	note B_, 3
	note_type 6, 4
	note B_, 3
	; ah
	note_type 3, 10
	note B_, 2

MusDTitle8_Hill:
	note_type 3, 4
	note E_, 2
	note E_, 2
	note E_, 2
	note E_, 2
	note E_, 2
	note E_, 2
	note E_, 2
	note E_, 2
	note D_, 2
	note D_, 2
	note D_, 2
	note D_, 2
	note D_, 2
	note D_, 2
	note D_, 2
	note D_, 2
	note A_, 1
	note A_, 1
	note A_, 1
	note A_, 1
	note A_, 1
	note A_, 1
	note A_, 1
	note A_, 1
	note B_, 1
	note B_, 1
	note B_, 1
	note B_, 1
	note B_, 1
	note B_, 1
	note B_, 1
	note B_, 1

MusDTitle8_Noise:
	note_type 1, 8
	drum_note P_Crash
	drum_note P_Snare
	note_type 1, 4
	drum_note P_Kick
	drum_note P_Kick
	note_type 1, 8
	drum_note P_Snare
	drum_note P_Kick
	drum_note P_Snare
	note_type 1, 4
	drum_note P_Kick
	drum_note P_Kick
	drum_note P_Snare
	drum_note P_Kick
	note_type 1, 8
	drum_note P_Kick
	drum_note P_Snare
	note_type 1, 4
	drum_note P_Kick
	drum_note P_Kick
	note_type 1, 8
	drum_note P_Snare
	note_type 1, 4
	drum_note P_Snare
	drum_note P_Kick
	drum_note P_Snare
	drum_note P_Kick
	drum_note P_Snare
	note_type 1, 0
	drum_note P_Snare
	drum_note P_Snare
	note_type 1, 4
	drum_note P_Snare
	note_type 1, 0
	drum_note P_Snare
	drum_note P_Snare

MusDTitle8_DPCM:
	note_type 1, 4
	smp_note Chug_E2
	smp_note Chug_E2
	smp_note Maj_E2
	smp_note Chug_E2
	smp_note Chug_E2
	note_type 1, 8
	smp_note Maj_E2
	note_type 1, 4
	smp_note Maj_E2
	smp_note Chug_D2
	smp_note Chug_D2
	smp_note Maj_D2
	smp_note Chug_D2
	smp_note Chug_D2
	note_type 1, 8
	smp_note Maj_D2
	note_type 1, 4
	smp_note Maj_D2
	smp_note Chug_A2
	smp_note Chug_A2
	smp_note Maj_A2
	smp_note Chug_A2
	smp_note Chug_A2
	smp_note Chug_A2
	note_type 1, 8
	smp_note Maj_A2
	smp_note Maj_Slide
	note_type 1, 4
	smp_note Maj_B2
	smp_note Maj_B2
	smp_note Maj_B2
	smp_note Maj_B2
	smp_note Maj_B2
	smp_note Maj_B2
