MusDTitle7:
MusDTitle7_SQ2:
	note_type 1, 12
	rest
	rest
	rest
	rest
	rest
	rest
	rest
	rest
	rest
	rest
	rest
	rest
	sound_ret

; lyrical leads
; 2 - "ooh", E, "oough,", "iyeh"
; 3 - I, "ah", "uh"
; 4 - "eh", O, "Ur", A
; CONSONANTAL: "n", "m", "l", "b", "p"
; 2 - Start
; 6 - End
; WITH SWEEP:
; 1 - "k", "g", "s", "th", "z"
; 3 - "t", "ts", "ch"
; P.S. Remind me never to do 2A03 vocaloid again!
MusDTitle7_SQ1:
	note_type 2, 4
	rest
	; He
	note B_, 2
	; may
	note_type 4, 8
	note B_, 2
	; look
	note_type 2, 4
	note E_, 3
	toggle_sweep
	note_type 1, 1
	note E_, 3
	toggle_sweep
	rest
	rest
	; like
	note_type 2, 1
	note E_, 3
	note_type 3, 4
	note E_, 3
	toggle_sweep
	note_type 1, 1
	note E_, 3
	toggle_sweep
	rest
	note_type 1, 0
	rest
	; a-
	note_type 4, 5
	note F#, 3
	; -ny
	note_type 2, 4
	note G#, 3
	note_type 2, 1
	rest
	; pet,
	note A_, 3
	note_type 4, 4
	note A_, 3
	note_type 4, 11
	rest
	; like
	note_type 2, 1
	note E_, 3
	note_type 3, 4
	note E_, 3
	toggle_sweep
	note_type 1, 1
	note E_, 3
	toggle_sweep
	note_type 2, 0
	rest
	; he's
	note_type 2, 5
	note G#, 3
	toggle_sweep
	note_type 1, 1
	note C_, 6
	note C_, 6
	toggle_sweep
	; a-
	note_type 3, 5
	note B_, 3
	note_type 2, 1
	rest
	; -no-
	note A_, 3
	note_type 3, 4
	note A_, 3
	note_type 1, 1
	rest
	; -ther
	toggle_sweep
	note C_, 6
	toggle_sweep
	note_type 4, 4
	note G#, 3
	note_type 2, 1
	rest
	; num-
	note F#, 3
	note_type 3, 5
	note F#, 3
	note_type 2, 1
	rest
	; -ber,
	note E_, 3
	note_type 4, 8
	note E_, 3
	rest
	; but
	note_type 2, 1
	note B_, 2
	note_type 3, 0
	note B_, 2
	note_type 2, 1
	rest
	; e'er
	note_type 4, 5
	note E_, 3
	; since
	toggle_sweep
	note_type 1, 1
	note C_, 6
	note C_, 6
	toggle_sweep
	note_type 2, 4
	note G#, 3
	toggle_sweep
	note_type 1, 4
	note C_, 6
	toggle_sweep
	; his
	note_type 2, 5
	note B_, 3
	toggle_sweep
	note_type 1, 1
	note C_, 6
	note C_, 6
	toggle_sweep
	; ow-
	note_type 4, 4
	note A_, 3
	note_type 2, 1
	rest
	; -ner
	note G#, 3
	note_type 4, 4
	note G#, 3
	note_type 2, 1
	rest
	; fled,
	note F#, 3
	note_type 4, 4
	note F#, 3
	note_type 4, 9
	rest
	; it's
	note_type 2, 0
	note E_, 3
	toggle_sweep
	note_type 3, 0
	note C_, 6
	toggle_sweep
	; ne-
	note_type 2, 1
	note E_, 3
	note_type 4, 1
	note F_, 3
	note_type 4, 5
	note F#, 3
	; -ver
	note_type 4, 0
	note G#, 3
	rest
	; been
	note_type 2, 1
	note F#, 3
	note_type 4, 4
	note F#, 3
	note_type 6, 0
	note F#, 3
	; the
	toggle_sweep
	note_type 1, 1
	note C_, 6
	toggle_sweep
	note_type 3, 5
	note E_, 3
	; same.
	toggle_sweep
	note_type 1, 1
	note C_, 6
	note C_, 6
	toggle_sweep
	note_type 4, 9
	note D#, 3
	note_type 6, 4
	note D#, 3
	note_type 4, 10
	rest
	note_type 4, 9
	rest
	; For
	note_type 4, 5
	note B_, 2
	note_type 2, 1
	rest
	; now,
	note E_, 3
	note_type 3, 4
	note E_, 3
	note_type 6, 0
	note E_, 3
	rest
	; he'll
	note_type 2, 5
	note E_, 3
	note_type 2, 1
	rest
	; walk
	note F#, 3
	note_type 3, 4
	note F#, 3
	toggle_sweep
	note_type 1, 1
	note F#, 3
	toggle_sweep
	rest
	; a-
	note_type 3, 0
	note G#, 3
	note_type 3, 4
	rest
	; -bout,
	note A_, 3
	note_type 6, 0
	note A_, 3
	note_type 6, 10
	rest
	note_type 3, 5
	rest
	; and
	note E_, 3
	note_type 1, 1
	rest
	; greet
	toggle_sweep
	note G#, 3
	toggle_sweep
	note_type 8, 1
	note G#, 3
	note_type 2, 4
	note G#, 3
	note_type 2, 1
	rest
	note_type 2, 0
	rest
	; his
	note_type 2, 5
	note B_, 3
	toggle_sweep
	note_type 1, 1
	note C_, 6
	note C_, 6
	toggle_sweep
	; fur-
	note_type 4, 5
	note A_, 3
	; -ry
	note_type 2, 5
	note G#, 3
	; neigh-
	note_type 4, 8
	note F#, 3
	; -bors,
	note_type 2, 1
	note E_, 3
	note_type 4, 5
	note E_, 3
	toggle_sweep
	note_type 1, 4
	note C_, 6
	toggle_sweep
	note_type 1, 0
	rest

MusDTitle7_Hill:
	note_type 1, 4
	note E_, 2
	note E_, 2
	note E_, 2
	note E_, 2
	note E_, 2
	note E_, 2
	note E_, 2
	note E_, 2
	note D_, 2
	note D_, 2
	note D_, 2
	note D_, 2
	note D_, 2
	note D_, 2
	note D_, 2
	note D_, 2
	note A_, 1
	note A_, 1
	note A_, 1
	note A_, 1
	note A_, 1
	note A_, 1
	note A_, 1
	note A_, 1
	note B_, 1
	note B_, 1
	note B_, 1
	note B_, 1
	note B_, 1
	note B_, 1
	note B_, 1
	note B_, 1
	sound_loop

MusDTitle7_Noise:
	note_type 1, 8
	drum_note P_Crash
	drum_note P_Snare
	note_type 1, 4
	drum_note P_Kick
	drum_note P_Kick
	note_type 1, 8
	drum_note P_Snare
	drum_note P_Kick
	drum_note P_Snare
	note_type 1, 4
	drum_note P_Kick
	drum_note P_Kick
	note_type 1, 8
	drum_note P_Snare
	drum_note P_Kick
	drum_note P_Snare
	note_type 1, 4
	drum_note P_Kick
	drum_note P_Kick
	note_type 1, 8
	drum_note P_Snare
	drum_note P_Kick
	drum_note P_Snare
	note_type 1, 4
	drum_note P_Kick
	drum_note P_Kick
	drum_note P_Snare
	drum_note P_Snare
	note_type 1, 8
	drum_note P_Kick
	drum_note P_Snare
	note_type 1, 4
	drum_note P_Kick
	drum_note P_Kick
	note_type 1, 8
	drum_note P_Snare
	drum_note P_Kick
	drum_note P_Snare
	note_type 1, 4
	drum_note P_Kick
	drum_note P_Kick
	drum_note P_Snare
	drum_note P_Kick
	note_type 1, 8
	drum_note P_Kick
	drum_note P_Snare
	note_type 1, 4
	drum_note P_Kick
	drum_note P_Kick
	note_type 1, 8
	drum_note P_Snare
	drum_note P_Kick
	drum_note P_Snare
	note_type 1, 4
	drum_note P_Kick
	drum_note P_Kick
	drum_note P_Snare
	note_type 1, 0
	drum_note P_Snare
	drum_note P_Snare
	note_type 1, 8
	drum_note P_Crash
	drum_note P_Snare
	note_type 1, 4
	drum_note P_Kick
	drum_note P_Kick
	note_type 1, 8
	drum_note P_Snare
	drum_note P_Kick
	drum_note P_Snare
	note_type 1, 4
	drum_note P_Kick
	drum_note P_Kick
	note_type 1, 8
	drum_note P_Snare
	drum_note P_Kick
	drum_note P_Snare
	note_type 1, 4
	drum_note P_Kick
	drum_note P_Kick
	note_type 1, 8
	drum_note P_Snare
	drum_note P_Kick
	drum_note P_Snare
	note_type 1, 4
	drum_note P_Snare
	note_type 1, 0
	drum_note P_Snare
	drum_note P_Snare
	note_type 1, 4
	drum_note P_Snare
	drum_note P_Snare

MusDTitle7_DPCM:
	note_type 1, 4
	smp_note Chug_E2
	smp_note Chug_E2
	smp_note Maj_E2
	smp_note Chug_E2
	smp_note Chug_E2
	note_type 1, 8
	smp_note Maj_E2
	note_type 1, 4
	smp_note Maj_E2
	smp_note Chug_D2
	smp_note Chug_D2
	smp_note Maj_D2
	smp_note Chug_D2
	smp_note Chug_D2
	note_type 1, 8
	smp_note Maj_D2
	note_type 1, 4
	smp_note Maj_D2
	smp_note Chug_A2
	smp_note Chug_A2
	smp_note Maj_A2
	smp_note Chug_A2
	smp_note Chug_A2
	smp_note Chug_A2
	note_type 1, 8
	smp_note Maj_A2
	smp_note Maj_Slide
	note_type 1, 4
	smp_note Chug_B2
	note_type 1, 8
	smp_note Maj_B2
	note_type 1, 4
	smp_note Maj_B2
	smp_note Maj_B2
	smp_note Maj_B2
	sound_loop
