MusDTitle9:
MusDTitle9_SQ2:
	; ah
	note_type 3, 10
	note E_, 3
	note E_, 3
	note E_, 3
	note E_, 3
	note_type 3, 4
	note D#, 3
	note_type 3, 9
	note E_, 3
	note_type 3, 10
	note D#, 3
	note_type 3, 12
	note E_, 3
	; ah
	note_type 3, 10
	note E_, 3
	note E_, 3
	note E_, 3
	note E_, 3
	sound_ret

MusDTitle9_SQ1:
	; ah
	note_type 3, 4
	note B_, 2
	note C#, 3
	; It's
	note_type 2, 4
	note C#, 4
	toggle_sweep
	note_type 3, 4
	note C_, 6
	toggle_sweep
	; O-
	note_type 4, 8
	note C#, 4
	; -tis,
	note_type 2, 4
	note A_, 3
	toggle_sweep
	note_type 1, 0
	note C_, 6
	note_type 3, 1
	rest
	; June
	note C_, 6
	toggle_sweep
	note_type 2, 8
	note B_, 3
	; and
	note_type 3, 0
	note A_, 3
	note_type 5, 0
	note A_, 3
	; him
	note_type 2, 8
	note G#, 3
	rest
	; just
	toggle_sweep
	note_type 3, 1
	note C_, 6
	toggle_sweep
	note_type 3, 0
	note E_, 3
	toggle_sweep
	note_type 1, 1
	note C_, 6
	toggle_sweep
	; ven-
	note_type 2, 1
	note A_, 3
	note_type 4, 4
	note A_, 3
	note_type 6, 0
	note A_, 3
	; -tur-
	toggle_sweep
	note_type 3, 1
	note C_, 6
	toggle_sweep
	note_type 4, 4
	note G#, 3
	; -ing
	note_type 2, 5
	note F#, 3
	note_type 3, 1
	rest
	; to-
	toggle_sweep
	note C_, 6
	toggle_sweep
	note_type 2, 5
	note G#, 3
	note_type 1, 1
	rest
	; -ge-
	toggle_sweep
	note G#, 3
	toggle_sweep
	note_type 4, 5
	note G#, 3
	note_type 1, 1
	rest
	; -ther.
	toggle_sweep
	note C_, 6
	toggle_sweep
	note_type 4, 9
	note E_, 3
	note_type 4, 10
	rest
	; ah
	note_type 3, 4
	note B_, 2
	note C#, 3
	; Who
	note_type 2, 0
	note C_, 4
	note_type 2, 5
	note C#, 4
	; knows
	note_type 4, 5
	note C#, 4
	toggle_sweep
	note_type 1, 1
	note C_, 6
	; the
	note C_, 6
	toggle_sweep
	note_type 3, 4
	note D#, 4
	; mis-
	note_type 2, 4
	note E_, 4
	toggle_sweep
	note_type 1, 1
	note C_, 6
	note C_, 6
	rest
	; -chief
	note_type 3, 1
	note C_, 6
	toggle_sweep
	note_type 2, 4
	note B_, 3
	note_type 2, 0
	rest
	note_type 1, 1
	rest
	; that
	toggle_sweep
	note C_, 6
	toggle_sweep
	note_type 3, 8
	note B_, 3
	note_type 3, 5
	rest
	note_type 1, 1
	rest
	; they'll
	toggle_sweep
	note C_, 6
	toggle_sweep
	note_type 4, 4
	note B_, 3

MusDTitle9_Hill:
	note_type 1, 8
	note A_, 1
	note A_, 1
	note A_, 2
	note A_, 2
	note G#, 2
	note G#, 2
	note G#, 2
	note G#, 2
	note F#, 2
	note F#, 2
	note F#, 2
	note F#, 2
	note E_, 2
	note E_, 2
	note B_, 1
	note B_, 1
	note A_, 1
	note A_, 1
	note A_, 1
	note A_, 1
	note G#, 1
	note G#, 1
	note G#, 1
	note G#, 1

MusDTitle9_Noise:
	note_type 1, 8
	drum_note P_Crash
	drum_note P_Snare
	note_type 1, 4
	drum_note P_Kick
	drum_note P_Kick
	note_type 1, 8
	drum_note P_Snare
	drum_note P_Kick
	drum_note P_Snare
	note_type 1, 4
	drum_note P_Kick
	drum_note P_Kick
	note_type 1, 8
	drum_note P_Snare
	drum_note P_Kick
	drum_note P_Snare
	note_type 1, 4
	drum_note P_Kick
	drum_note P_Kick
	note_type 1, 8
	drum_note P_Snare
	drum_note P_Kick
	drum_note P_Snare
	note_type 1, 4
	drum_note P_Snare
	note_type 1, 0
	drum_note P_Snare
	drum_note P_Snare
	note_type 1, 4
	drum_note P_Snare
	drum_note P_Snare
	note_type 1, 8
	drum_note P_Crash
	drum_note P_Snare
	note_type 1, 4
	drum_note P_Kick
	drum_note P_Kick
	note_type 1, 8
	drum_note P_Snare
	drum_note P_Kick
	drum_note P_Snare
	note_type 1, 4
	drum_note P_Kick
	drum_note P_Kick
	drum_note P_Snare
	drum_note P_Kick

MusDTitle9_DPCM:
	note_type 1, 4
	smp_note Maj_A2
	smp_note Maj_A2
	smp_note Maj_A2
	smp_note Maj_A2
	smp_note Maj_A2
	smp_note Maj_A2
	smp_note Maj_A2
	smp_note Maj_A2
	smp_note Maj_E2
	smp_note Maj_E2
	smp_note Maj_E2
	smp_note Maj_E2
	smp_note Maj_E2
	smp_note Maj_E2
	smp_note Maj_E2
	smp_note Maj_E2
	sound_loop
