MusDTitle1:
MusDTitle1_SQ2:
	note_type 1, 12
	rest
	rest
	rest
	rest
	rest
	rest
	note_type 1, 1
	rest
	note E_, 3
	note_type 1, 11
	note A_, 3
	note_type 1, 5
	rest
	note_type 1, 9
	note E_, 3
	note_type 1, 4
	note E_, 3
	note_type 1, 10
	note D#, 3
	sound_ret

MusDTitle2:
MusDTitle2_SQ2:
MusDTitle3:
MusDTitle3_SQ2:
	note_type 1, 4
	note E_, 2
	note E_, 2
	note E_, 3
	note E_, 2
	note E_, 2
	note_type 1, 8
	note E_, 3
	note_type 1, 4
	note E_, 3
	note D_, 2
	note D_, 2
	note E_, 3
	note D_, 2
	note D_, 2
	note_type 1, 8
	note E_, 3
	note_type 1, 4
	note E_, 3
	note A_, 2
	note A_, 2
	note E_, 3
	note A_, 2
	note A_, 2
	note A_, 2
	note_type 1, 8
	note E_, 3
	note_type 1, 4
	note E_, 3
	note F#, 3
	note B_, 2
	note_type 1, 8
	note F#, 3
	note_type 1, 4
	note F#, 3
	note F#, 3
	note F#, 3
	sound_ret

MusDTitle4:
MusDTitle4_SQ2:
MusDTitle5:
MusDTitle5_SQ2:
	note_type 1, 8
	rest
	note_type 1, 10
	note E_, 3
	note E_, 3
	note E_, 3
	note E_, 3
	note E_, 3
	note_type 1, 8
	note E_, 3
	rest
	note_type 1, 10
	note D#, 3
	note_type 1, 8
	note D#, 3
	sound_ret

MusDTitle1_SQ1:
	note_type 1, 12
	rest
	rest
	rest
	rest
	rest
	rest
	note C#, 3
	note_type 1, 4
	note B_, 1
	note F#, 2
	note_type 1, 9
	note B_, 2
	note_type 1, 4
	note B_, 2
	note_type 1, 8
	note F#, 2

MusDTitle2_SQ1:
MusDTitle3_SQ1:
	note_type 1, 4
	note E_, 2
	note E_, 2
	note B_, 2
	note E_, 2
	note E_, 2
	note_type 1, 8
	note B_, 2
	note_type 1, 4
	note B_, 2
	note D_, 2
	note D_, 2
	note B_, 2
	note D_, 2
	note D_, 2
	note_type 1, 8
	note B_, 2
	note_type 1, 4
	note B_, 2
	note A_, 2
	note A_, 2
	note C#, 3
	note A_, 2
	note A_, 2
	note A_, 2
	note_type 1, 8
	note C#, 3
	note_type 1, 4
	note C#, 3
	note D#, 3
	note B_, 2
	note_type 1, 8
	note D#, 3
	note_type 1, 4
	note D#, 3
	note D#, 3
	note D#, 3

MusDTitle4_SQ1:
MusDTitle5_SQ1:
	note_type 1, 10
	note B_, 2
	note G#, 3
	note B_, 2
	note F#, 3
	note C#, 3
	note A_, 3
	note B_, 2
	note F#, 3

MusDTitle1_Hill:
	note_type 1, 12
	rest
	rest
	rest
	note_type 1, 11
	rest
	note_type 1, 0
	rest
	rest
	note E_, 3
	note F#, 3
	note_type 8, 8
	note E_, 3
	note E_, 3
	note E_, 3
	note E_, 3
	note E_, 3
	note_type 8, 10
	note E_, 3
	note_type 1, 4
	rest
	note G#, 1
	note_type 8, 8
	note A_, 1
	note A_, 1
	note_type 1, 10
	note A_, 1
	note B_, 1
	note_type 1, 8
	note B_, 1
	note B_, 1

MusDTitle2_Hill:
MusDTitle3_Hill:
MusDTitle4_Hill:
MusDTitle5_Hill:
	note_type 1, 4
	note E_, 2
	note E_, 2
	note E_, 2
	note E_, 2
	note E_, 2
	note E_, 2
	note E_, 2
	note E_, 2
	note D_, 2
	note D_, 2
	note D_, 2
	note D_, 2
	note D_, 2
	note D_, 2
	note D_, 2
	note D_, 2
	note A_, 1
	note A_, 1
	note A_, 1
	note A_, 1
	note A_, 1
	note A_, 1
	note A_, 1
	note A_, 1
	note B_, 1
	note B_, 1
	note B_, 1
	note B_, 1
	note B_, 1
	note B_, 1
	note B_, 1
	note B_, 1

MusDTitle1_Noise:
	note_type 1, 8
	drum_note P_Hat
	drum_note P_Hat
	drum_note P_Hat
	drum_note P_Hat
	drum_note P_Hat
	drum_note P_Hat
	drum_note P_Hat
	drum_note P_Hat
	drum_note P_Hat
	drum_note P_Hat
	drum_note P_Hat
	drum_note P_Hat
	drum_note P_Hat
	drum_note P_Hat
	drum_note P_Hat
	drum_note P_DClap
	drum_note P_Hat
	drum_note P_Hat
	drum_note P_Hat
	drum_note P_Hat
	drum_note P_Hat
	drum_note P_Hat
	drum_note P_Hat
	drum_note P_Hat
	drum_note P_Hat
	drum_note P_Hat
	drum_note P_Hat
	drum_note P_Hat
	drum_note P_Hat
	drum_note P_Hat
	drum_note P_DClap
	note_type 1, 4
	drum_note P_Snare
	note_type 1, 0
	drum_note P_Snare
	drum_note P_Snare

MusDTitle2_Noise:
	note_type 1, 8
	drum_note P_Crash
	drum_note P_Snare
	note_type 1, 4
	drum_note P_Kick
	drum_note P_Kick
	note_type 1, 8
	drum_note P_Snare
	drum_note P_Kick
	drum_note P_Snare
	note_type 1, 4
	drum_note P_Kick
	drum_note P_Kick
	note_type 1, 8
	drum_note P_Snare
	drum_note P_Kick
	drum_note P_Snare
	note_type 1, 4
	drum_note P_Kick
	drum_note P_Kick
	note_type 1, 8
	drum_note P_Snare
	drum_note P_Kick
	drum_note P_Snare
	note_type 1, 4
	drum_note P_Kick
	drum_note P_Kick
	drum_note P_Snare
	drum_note P_Snare

MusDTitle3_Noise:
MusDTitle5_Noise:
	note_type 1, 8
	drum_note P_Kick
	drum_note P_Snare
	note_type 1, 4
	drum_note P_Kick
	drum_note P_Kick
	note_type 1, 8
	drum_note P_Snare
	drum_note P_Kick
	drum_note P_Snare
	note_type 1, 4
	drum_note P_Kick
	drum_note P_Kick
	drum_note P_Snare
	drum_note P_Kick
	note_type 1, 8
	drum_note P_Kick
	drum_note P_Snare
	note_type 1, 4
	drum_note P_Kick
	drum_note P_Kick
	note_type 1, 8
	drum_note P_Snare
	drum_note P_Kick
	drum_note P_Snare
	note_type 1, 4
	drum_note P_Kick
	drum_note P_Kick
	drum_note P_Snare
	note_type 1, 0
	drum_note P_Snare
	drum_note P_Snare

MusDTitle4_Noise:
	note_type 1, 8
	drum_note P_Kick
	drum_note P_Snare
	note_type 1, 4
	drum_note P_Kick
	drum_note P_Kick
	note_type 1, 8
	drum_note P_Snare
	drum_note P_Kick
	drum_note P_Snare
	note_type 1, 4
	drum_note P_Kick
	drum_note P_Kick
	note_type 1, 8
	drum_note P_Snare
	drum_note P_Kick
	drum_note P_Snare
	note_type 1, 4
	drum_note P_Kick
	drum_note P_Kick
	note_type 1, 8
	drum_note P_Snare
	drum_note P_Kick
	drum_note P_Snare
	note_type 1, 4
	drum_note P_Kick
	drum_note P_Kick
	drum_note P_Snare
	drum_note P_Snare

MusDTitle1_DPCM:
MusDTitle2_DPCM:
MusDTitle3_DPCM:
MusDTitle4_DPCM:
MusDTitle5_DPCM:
	note_type 1, 4
	smp_note PM_E2
	smp_note PM_E2
	smp_note Maj_E2
	smp_note PM_E2
	smp_note PM_E2
	note_type 1, 8
	smp_note Maj_E2
	note_type 1, 4
	smp_note Maj_E2
	smp_note PM_D2
	smp_note PM_D2
	smp_note Maj_D2
	smp_note PM_D2
	smp_note PM_D2
	note_type 1, 8
	smp_note Maj_D2
	note_type 1, 4
	smp_note Maj_D2
	smp_note PM_A2
	smp_note PM_A2
	smp_note Maj_A2
	smp_note PM_A2
	smp_note PM_A2
	smp_note PM_A2
	note_type 1, 8
	smp_note Maj_A2
	smp_note Maj_Slide
	note_type 1, 4
	smp_note PM_B2
	note_type 1, 8
	smp_note Maj_B2
	note_type 1, 4
	smp_note Maj_B2
	smp_note Maj_B2
	smp_note Maj_B2
	sound_loop
