MusDTitle10:
MusDTitle10_SQ2:
	; ah
	note_type 3, 10
	note E_, 3
	note E_, 3
	note_type 3, 4
	note D#, 3
	note_type 3, 9
	note E_, 3
	note_type 3, 10
	note E_, 3
	note_type 3, 8
	note D#, 3
	note_type 3, 11
	rest
	; Come
	note_type 4, 10
	note C#, 4
	; with
	note_type 2, 0
	note D_, 4
	note D#, 4
	note_type 2, 8
	note E_, 4
	note_type 2, 4
	rest
	; I-
	note_type 2, 9
	note D#, 4
	note_type 2, 4
	rest
	; -ggy
	note_type 2, 10
	note B_, 3
	; and
	note_type 3, 9
	note A_, 3
	note_type 6, 4
	note A_, 3
	; his
	note_type 2, 9
	note F#, 3
	note_type 2, 4
	rest
	; friends;
	note_type 4, 9
	note G#, 3
	note_type 6, 4
	note G#, 3
	note_type 2, 8
	rest
	note_type 2, 5
	rest
	note_type 2, 1
	rest
	; you'll
	note E_, 4
	note_type 4, 10
	note E_, 4
	; be
	note_type 2, 10
	note C#, 4
	; faw-
	note_type 3, 10
	note B_, 3
	; -ning
	note_type 2, 9
	note G#, 3
	; un-
	note_type 3, 0
	note G#, 3
	note_type 6, 1
	note G#, 3
	rest
	; -til
	note_type 2, 5
	note F#, 3
	note_type 2, 0
	rest
	; the
	note_type 3, 8
	note A_, 3
	; ve-
	note_type 4, 8
	note G#, 3
	; -ry
	note_type 2, 8
	note F#, 3
	; end.
	note_type 4, 9
	note E_, 3
	note_type 6, 4
	note E_, 3
	note_type 6, 10
	rest
	sound_ret

MusDTitle10_SQ1:
	; get
	toggle_sweep
	note_type 1, 1
	note A#, 3
	toggle_sweep
	note_type 4, 5
	note A#, 3
	note_type 4, 1
	rest
	; in-
	note_type 2, 4
	note A#, 3
	; -to
	toggle_sweep
	note_type 3, 1
	note C_, 6
	toggle_sweep
	note_type 2, 5
	note B_, 3
	note_type 3, 1
	rest
	; to-
	toggle_sweep
	note C_, 6
	toggle_sweep
	note_type 2, 5
	note C#, 4
	note_type 3, 1
	rest
	; -day.
	toggle_sweep
	note C_, 6
	toggle_sweep
	note_type 4, 12
	note B_, 3
	note_type 4, 1
	rest
	note_type 4, 0
	rest
	; ah
	note_type 3, 8
	note B_, 3
	note_type 3, 10
	rest
	note_type 3, 5
	rest
	note_type 3, 1
	rest
	; Come
	toggle_sweep
	note_type 1, 1
	note E_, 3
	toggle_sweep
	note_type 4, 10
	note E_, 3
	; with
	note_type 2, 9
	note G#, 3
	toggle_sweep
	note_type 1, 4
	note C_, 6
	toggle_sweep
	; I-
	note_type 2, 9
	note F#, 3
	note_type 2, 0
	rest
	note_type 1, 1
	rest
	; -ggy
	toggle_sweep
	note D#, 3
	toggle_sweep
	note_type 2, 10
	note D#, 3
	; and
	note_type 3, 9
	note C#, 3
	note_type 6, 4
	note C#, 3
	; his
	note_type 2, 9
	note A_, 2
	toggle_sweep
	note_type 1, 4
	note C_, 6
	toggle_sweep
	; friends;
	note_type 4, 9
	note B_, 2
	note_type 6, 4
	note B_, 2
	toggle_sweep
	note_type 1, 8
	note C_, 6
	toggle_sweep
	note_type 2, 5
	rest
	note_type 2, 1
	rest
	; you'll
	note G#, 3
	note_type 4, 10
	note G#, 3
	; be
	note_type 2, 10
	note E_, 3
	; faw-
	note_type 3, 10
	note D#, 3
	; -ning
	note_type 2, 9
	note B_, 2
	; un-
	note_type 3, 0
	note B_, 2
	note_type 6, 1
	note B_, 2
	; -til
	toggle_sweep
	note_type 3, 1
	note C_, 6
	toggle_sweep
	note_type 2, 5
	note A_, 2
	note_type 1, 1
	rest
	; the
	toggle_sweep
	note C_, 6
	toggle_sweep
	note_type 3, 8
	note C#, 3
	; ve-
	note_type 4, 8
	note B_, 2
	; -ry
	note_type 2, 8
	note A_, 2
	; end.
	note_type 4, 9
	note G#, 2
	note_type 6, 4
	note G#, 2
	note_type 6, 10
	rest

MusDTitle10_Hill:
	note_type 1, 8
	note F#, 1
	note F#, 1
	note F#, 1
	note F#, 1
	note B_, 1
	note B_, 1
	note B_, 1
	note B_, 1
	note B_, 2
	note_type 1, 11
	rest
	note_type 1, 8
	note C#, 2
	note C#, 2
	note C#, 2
	note C#, 2
	note B_, 1
	note B_, 1
	note B_, 1
	note B_, 1
	note A_, 1
	note A_, 1
	note A_, 1
	note A_, 1
	note E_, 1
	note E_, 1
	note E_, 1
	note B_, 1
	note C#, 2
	note C#, 2
	note C#, 2
	note C#, 2
	note B_, 1
	note B_, 1
	note B_, 1
	note B_, 1
	note A_, 1
	note A_, 1
	note B_, 1
	note B_, 1
	note_type 8, 8
	note E_, 2
	note E_, 2
	note_type 8, 10
	note E_, 2

MusDTitle10_Noise:
	note_type 1, 8
	drum_note P_Kick
	drum_note P_Snare
	note_type 1, 4
	drum_note P_Kick
	drum_note P_Kick
	note_type 1, 8
	drum_note P_Snare
	note_type 1, 4
	drum_note P_Snare
	drum_note P_Kick
	drum_note P_Snare
	drum_note P_Kick
	drum_note P_Snare
	note_type 1, 0
	drum_note P_Snare
	drum_note P_Snare
	note_type 1, 4
	drum_note P_Snare
	note_type 1, 0
	drum_note P_Snare
	drum_note P_Snare
	note_type 1, 8
	drum_note P_Crash
	drum_note P_Kick
	note_type 1, 4
	drum_note P_Kick
	note_type 1, 0
	drum_note P_Snare
	drum_note P_Snare
	note_type 1, 4
	drum_note P_Snare
	note_type 1, 0
	drum_note P_Snare
	drum_note P_Snare
	note_type 1, 8
	drum_note P_Crash
	drum_note P_Snare
	note_type 1, 4
	drum_note P_Kick
	drum_note P_Kick
	note_type 1, 8
	drum_note P_Snare
	drum_note P_Kick
	drum_note P_Snare
	note_type 1, 4
	drum_note P_Kick
	drum_note P_Kick
	note_type 1, 8
	drum_note P_Snare
	drum_note P_Kick
	drum_note P_Snare
	note_type 1, 4
	drum_note P_Kick
	drum_note P_Kick
	note_type 1, 8
	drum_note P_Snare
	drum_note P_Kick
	drum_note P_Snare
	note_type 1, 4
	drum_note P_Snare
	note_type 1, 0
	drum_note P_Snare
	drum_note P_Snare
	note_type 1, 4
	drum_note P_Snare
	drum_note P_Snare
	note_type 1, 8
	drum_note P_Crash
	drum_note P_Snare
	note_type 1, 4
	drum_note P_Kick
	drum_note P_Kick
	note_type 1, 8
	drum_note P_Snare
	drum_note P_Kick
	drum_note P_Snare
	note_type 1, 4
	drum_note P_Kick
	drum_note P_Kick
	drum_note P_Snare
	drum_note P_Kick
	note_type 1, 8
	drum_note P_Kick
	drum_note P_Snare
	note_type 1, 4
	drum_note P_Kick
	drum_note P_Kick
	note_type 1, 8
	drum_note P_Snare
	note_type 1, 4
	drum_note P_Snare
	drum_note P_Kick
	drum_note P_Snare
	drum_note P_Kick
	drum_note P_Snare
	note_type 1, 0
	drum_note P_Snare
	drum_note P_Snare
	note_type 1, 4
	drum_note P_Snare
	note_type 1, 0
	drum_note P_Snare
	drum_note P_Snare

MusDTitle10_DPCM:
	note_type 1, 4
	smp_note Maj_Fs2
	smp_note Maj_Fs2
	smp_note Maj_Fs2
	smp_note Maj_Fs2
	smp_note Maj_Fs2
	smp_note Maj_Fs2
	smp_note Maj_Fs2
	smp_note Maj_Fs2
	smp_note Maj_B2
	smp_note Maj_B2
	smp_note Maj_B2
	smp_note Maj_B2
	smp_note Maj_B2
	smp_note Maj_B2
	smp_note Maj_B2
	smp_note Maj_B2
	note_type 1, 8
	smp_note Maj_B2
	note_type 1, 11
	rest
	note_type 1, 8
	smp_note Maj_E2
	smp_note Maj_E2
	smp_note Maj_E2
	smp_note Maj_E2
	smp_note Maj_B2
	smp_note Maj_B2
	smp_note Maj_B2
	smp_note Maj_B2
	smp_note Maj_A2
	smp_note Maj_A2
	smp_note Maj_A2
	smp_note Maj_A2
	smp_note Maj_E2
	smp_note Maj_E2
	smp_note Maj_E2
	smp_note Maj_E2
	smp_note Maj_E2
	smp_note Maj_E2
	smp_note Maj_E2
	smp_note Maj_E2
	smp_note Maj_B2
	smp_note Maj_B2
	smp_note Maj_B2
	smp_note Maj_B2
	smp_note Maj_A2
	smp_note Maj_A2
	smp_note Maj_B2
	smp_note Maj_B2
	smp_note Maj_E2
	smp_note Maj_E2
	smp_note Maj_E2
	smp_note Maj_E2
